<svg width="24" height="24" viewBox="0 0 24 24" fill="none" xmlns="http://www.w3.org/2000/svg">
<path d="M21 6.00022H2.25V5.25022L18.75 3.93022V5.25022H21V3.00022C21 1.35022 19.6635 0.192224 18.0315 0.424724L2.97 2.57572C1.3365 2.80972 0 4.35022 0 6.00022V21.0002C0 21.7959 0.31607 22.5589 0.87868 23.1215C1.44129 23.6842 2.20435 24.0002 3 24.0002H21C21.7956 24.0002 22.5587 23.6842 23.1213 23.1215C23.6839 22.5589 24 21.7959 24 21.0002V9.00022C24 8.20457 23.6839 7.44151 23.1213 6.8789C22.5587 6.31629 21.7956 6.00022 21 6.00022ZM18.75 16.5092C18.4544 16.5091 18.1618 16.4508 17.8887 16.3376C17.6157 16.2244 17.3676 16.0585 17.1587 15.8495C16.9498 15.6404 16.7841 15.3922 16.671 15.1191C16.558 14.846 16.4999 14.5533 16.5 14.2577C16.5001 13.9622 16.5584 13.6695 16.6716 13.3965C16.7848 13.1234 16.9507 12.8754 17.1598 12.6664C17.3688 12.4575 17.617 12.2918 17.8901 12.1788C18.1632 12.0657 18.4559 12.0076 18.7515 12.0077C19.3484 12.0079 19.9208 12.2452 20.3428 12.6675C20.7648 13.0897 21.0017 13.6623 21.0015 14.2592C21.0013 14.8562 20.764 15.4286 20.3417 15.8505C19.9195 16.2725 19.3469 16.5094 18.75 16.5092Z" fill="#EDEDED"/>
</svg>
