<svg width="20" height="20" viewBox="0 0 20 20" fill="none" xmlns="http://www.w3.org/2000/svg">
<path d="M0.100098 10.0001C0.100098 11.8195 1.60247 13.3001 3.44863 13.3001C4.33487 13.3001 5.13629 12.9536 5.73567 12.3981L12.4227 16.1645C12.4026 16.3075 12.378 16.4505 12.378 16.6001C12.378 18.4195 13.8804 19.9001 15.7266 19.9001C17.5727 19.9001 19.0751 18.4195 19.0751 16.6001C19.0751 14.7807 17.5727 13.3001 15.7266 13.3001C14.8403 13.3001 14.0389 13.6466 13.4395 14.2021L6.75251 10.4368C6.7726 10.2927 6.79716 10.1497 6.79716 10.0001C6.79716 9.8505 6.7726 9.7075 6.75251 9.5634L13.4395 5.7981C14.0389 6.3536 14.8403 6.7001 15.7266 6.7001C17.5727 6.7001 19.0751 5.2195 19.0751 3.4001C19.0751 1.5807 17.5727 0.100098 15.7266 0.100098C13.8804 0.100098 12.378 1.5807 12.378 3.4001C12.378 3.5497 12.4026 3.6927 12.4227 3.8368L5.73567 7.6021C5.11843 7.02424 4.29997 6.70145 3.44863 6.7001C1.60247 6.7001 0.100098 8.1807 0.100098 10.0001Z" fill="#C4C4C4"/>
</svg>
