<svg width="26" height="26" viewBox="0 0 26 26" fill="none" xmlns="http://www.w3.org/2000/svg">
<path fill-rule="evenodd" clip-rule="evenodd" d="M13.0781 2.54258e-08C9.6301 0.000215514 6.32337 1.37015 3.8854 3.80842C1.44743 6.2467 0.0779095 9.5536 0.078125 13.0016C0.0783405 16.4497 1.44827 19.7564 3.88655 22.1943C6.32483 24.6323 9.63172 26.0018 13.0797 26.0016C16.5278 26.0014 19.8345 24.6315 22.2725 22.1932C24.7104 19.7549 26.08 16.448 26.0798 13C26.0795 9.55197 24.7096 6.24525 22.2713 3.80728C19.833 1.3693 16.5262 -0.000215463 13.0781 2.54258e-08V2.54258e-08ZM13.0001 24.375C9.98329 24.375 7.09001 23.1766 4.95679 21.0433C2.82356 18.9101 1.62513 16.0168 1.62513 13C1.62513 9.98316 2.82356 7.08989 4.95679 4.95666C7.09001 2.82343 9.98329 1.625 13.0001 1.625C16.017 1.625 18.9102 2.82343 21.0435 4.95666C23.1767 7.08989 24.3751 9.98316 24.3751 13C24.3751 16.0168 23.1767 18.9101 21.0435 21.0433C18.9102 23.1766 16.017 24.375 13.0001 24.375Z" fill="#EDEDED"/>
<path fill-rule="evenodd" clip-rule="evenodd" d="M4.80873 4.3614C4.36998 6.5454 6.00311 9.88478 9.47573 10.6973C12.9467 11.5098 11.455 10.8338 10.9155 9.7499C10.3727 8.66603 10.8586 7.85353 11.6987 7.58378C12.5405 7.3124 12.3276 8.0599 13.5756 6.4999C13.8909 3.2499 11.1836 6.45603 10.9139 5.1024C13.5951 1.98728 9.66911 0.812404 8.52998 1.21865C7.39086 1.6249 5.24748 2.17578 4.80873 4.3614Z" fill="#EDEDED"/>
<path fill-rule="evenodd" clip-rule="evenodd" d="M11.1688 12.5029C10.9673 12.5923 10.028 13.1789 9.70463 13.5851C9.38125 13.9914 9.23988 14.8494 9.70463 15.2101C10.1694 15.5725 9.67863 17.2885 10.9315 17.6038C12.1844 17.919 13.4389 18.1026 13.486 19.0939C13.5299 20.0851 13.369 22.3878 12.7661 22.6153C13.5786 23.0654 15.5563 20.6734 16.2517 19.4091C16.9489 18.1465 17.1812 16.3395 17.1341 15.8878C17.087 15.4376 17.412 14.4903 17.5517 13.2715C17.6899 12.0528 16.6255 11.9715 16.4874 11.4304C16.346 10.8876 16.1575 10.2913 11.1688 12.5029Z" fill="#EDEDED"/>
<path fill-rule="evenodd" clip-rule="evenodd" d="M21.3283 6.5C21.3283 6.5 18.0588 7.89912 20.2818 9.9775C22.5015 12.0526 23.6325 14.0238 23.5236 14.4755C23.4229 14.924 21.2811 17.2478 22.5113 17.0658C23.7479 16.8854 24.6595 14.4479 24.8561 13.0016C25.0495 11.5554 23.3546 8.71325 23.2848 8.489C23.2263 8.25988 22.1115 6.52438 21.3283 6.5Z" fill="#EDEDED"/>
</svg>
