<svg width="20" height="26" viewBox="0 0 20 26" fill="none" xmlns="http://www.w3.org/2000/svg">
<path d="M16.5 0H3.5C2.63805 0 1.8114 0.34241 1.2019 0.951903C0.59241 1.5614 0.25 2.38805 0.25 3.25V22.75C0.25 23.612 0.59241 24.4386 1.2019 25.0481C1.8114 25.6576 2.63805 26 3.5 26H16.5C17.362 26 18.1886 25.6576 18.7981 25.0481C19.4076 24.4386 19.75 23.612 19.75 22.75V3.25C19.75 2.38805 19.4076 1.5614 18.7981 0.951903C18.1886 0.34241 17.362 0 16.5 0V0ZM14.875 11.375C14.875 12.6679 14.3614 13.9079 13.4471 14.8221C12.5329 15.7364 11.2929 16.25 10 16.25C8.70707 16.25 7.46709 15.7364 6.55285 14.8221C5.63861 13.9079 5.125 12.6679 5.125 11.375C5.125 10.0821 5.63861 8.84209 6.55285 7.92785C7.46709 7.01361 8.70707 6.5 10 6.5C11.2929 6.5 12.5329 7.01361 13.4471 7.92785C14.3614 8.84209 14.875 10.0821 14.875 11.375ZM10 17.875C14.2624 17.875 16.7372 19.2173 18.125 20.7269V22.75C18.125 23.181 17.9538 23.5943 17.649 23.899C17.3443 24.2038 16.931 24.375 16.5 24.375H3.5C3.06902 24.375 2.6557 24.2038 2.35095 23.899C2.0462 23.5943 1.875 23.181 1.875 22.75V20.7269C3.26275 19.2156 5.73763 17.875 10 17.875Z" fill="#EDEDED"/>
</svg>
