<svg width="45" height="41" viewBox="0 0 45 41" fill="none" xmlns="http://www.w3.org/2000/svg">
<path d="M32.815 0C30.5768 0 28.4303 0.883561 26.8477 2.45631C25.265 4.02906 24.3759 6.16216 24.3759 8.38636V13.0455L21.3378 16.5416C20.9328 17.0075 20.7283 17.2424 20.6721 17.4287C20.6039 17.6475 20.6191 17.8836 20.7149 18.0919C20.8108 18.3002 20.9804 18.4662 21.1916 18.5581C21.3716 18.6364 21.6829 18.6364 22.3036 18.6364H43.3264C43.9472 18.6364 44.2585 18.6364 44.4385 18.5581C44.6496 18.4662 44.8193 18.3002 44.9151 18.0919C45.011 17.8836 45.0262 17.6475 44.958 17.4287C44.9017 17.2424 44.6973 17.0094 44.2904 16.5416L41.2541 13.0455V8.38636C41.2541 6.16216 40.365 4.02906 38.7824 2.45631C37.1997 0.883561 35.0532 0 32.815 0ZM32.815 24.2273C33.8098 24.2273 34.7638 23.8346 35.4672 23.1356C36.1706 22.4366 36.5657 21.4885 36.5657 20.5H29.0643C29.0643 21.4885 29.4595 22.4366 30.1629 23.1356C30.8663 23.8346 31.8203 24.2273 32.815 24.2273ZM18.8886 16.8752C19.0011 16.5394 19.1732 16.2264 19.3968 15.9509C19.5394 15.7701 19.7213 15.5595 19.9013 15.3545L22.5081 12.3522V8.38636C22.5081 8.07141 22.5231 7.76205 22.5512 7.45455H6.09492L5.74985 7.46386C4.19554 7.55145 2.73388 8.22678 1.6647 9.3513C0.595528 10.4758 -0.00010192 11.9643 1.3081e-08 13.5114V13.8543L20.6289 24.5143L27.2302 21.1038C27.2081 20.9033 27.1968 20.7017 27.1965 20.5H22.2718C21.9961 20.5 21.7167 20.5 21.4879 20.487C21.1317 20.4758 20.7805 20.4013 20.4508 20.267C19.8159 19.992 19.3054 19.4938 19.0172 18.8679C18.7289 18.2421 18.6831 17.5325 18.8886 16.8752ZM32.8225 26.0909C31.9241 26.0913 31.0387 25.8776 30.2405 25.4677C29.4424 25.0579 28.7548 24.4638 28.2354 23.7353L21.2778 27.3321C21.0774 27.4357 20.8548 27.4897 20.6289 27.4897C20.4031 27.4897 20.1805 27.4357 19.9801 27.3321L1.3081e-08 17.002V34.9413L0.00937702 35.2842C0.0970544 36.8292 0.776423 38.2821 1.90807 39.345C3.03971 40.4079 4.5378 41.0001 6.09492 41H35.163L35.5099 40.9907C37.0639 40.9026 38.5251 40.2271 39.5939 39.1026C40.6627 37.9782 41.258 36.49 41.2579 34.9432V20.5H38.4486C38.4486 21.9828 37.8559 23.4049 36.8008 24.4534C35.7457 25.5019 34.3147 26.0909 32.8225 26.0909Z" fill="#EDEDED"/>
</svg>
