<svg width="14" height="14" viewBox="0 0 14 14" fill="none" xmlns="http://www.w3.org/2000/svg">
<path d="M7.00003 0.33252C10.6827 0.33252 13.668 3.31785 13.668 7.00052C13.668 10.6825 10.6827 13.6679 7.00003 13.6679C3.31736 13.6679 0.332031 10.6825 0.332031 7.00052C0.332031 3.31785 3.31736 0.33252 7.00003 0.33252ZM6.99736 5.83252C6.83399 5.83274 6.67638 5.89295 6.55446 6.00172C6.43255 6.11048 6.35482 6.26023 6.33603 6.42252L6.33136 6.49985L6.33336 10.1679L6.33803 10.2459C6.35682 10.4084 6.43477 10.5584 6.55702 10.6673C6.67928 10.7761 6.83729 10.8361 7.00096 10.836C7.16463 10.8358 7.32252 10.7754 7.44455 10.6664C7.56659 10.5573 7.64423 10.4071 7.6627 10.2445L7.6667 10.1665L7.6647 6.49919L7.66003 6.42119C7.64076 6.25903 7.56264 6.10958 7.44049 6.00119C7.31835 5.89281 7.16067 5.83303 6.99736 5.83319V5.83252ZM7.00003 3.33319C6.77875 3.33319 6.56654 3.42109 6.41007 3.57756C6.2536 3.73402 6.1657 3.94624 6.1657 4.16752C6.1657 4.3888 6.2536 4.60102 6.41007 4.75748C6.56654 4.91395 6.77875 5.00185 7.00003 5.00185C7.22131 5.00185 7.43353 4.91395 7.58999 4.75748C7.74646 4.60102 7.83436 4.3888 7.83436 4.16752C7.83436 3.94624 7.74646 3.73402 7.58999 3.57756C7.43353 3.42109 7.22131 3.33319 7.00003 3.33319Z" fill="#8F8F8F"/>
</svg>
