<svg width="20" height="20" viewBox="0 0 20 20" fill="none" xmlns="http://www.w3.org/2000/svg">
<path d="M4.54975 5.12507H5.53125C5.85448 5.12507 6.16448 5.25347 6.39304 5.48203C6.6216 5.71059 6.75 6.02059 6.75 6.34382C6.75 6.66705 6.6216 6.97705 6.39304 7.20561C6.16448 7.43417 5.85448 7.56257 5.53125 7.56257H1.46875C1.14552 7.56257 0.835523 7.43417 0.606963 7.20561C0.378403 6.97705 0.25 6.66705 0.25 6.34382V2.28132C0.25 1.95809 0.378403 1.64809 0.606963 1.41953C0.835523 1.19097 1.14552 1.06257 1.46875 1.06257C1.79198 1.06257 2.10198 1.19097 2.33054 1.41953C2.5591 1.64809 2.6875 1.95809 2.6875 2.28132V3.55044C4.15772 1.88441 6.15291 0.77053 8.34264 0.393278C10.5324 0.0160259 12.7853 0.398033 14.7282 1.47603C16.6712 2.55404 18.1877 4.26336 19.0265 6.32092C19.8654 8.37849 19.9762 10.6609 19.3408 12.79C18.7054 14.9192 17.3617 16.7675 15.5324 18.0288C13.703 19.29 11.4978 19.8886 9.2818 19.7254C7.06581 19.5622 4.97205 18.6469 3.34726 17.1313C1.72247 15.6156 0.664126 13.5904 0.3475 11.3911C0.301816 11.0709 0.385209 10.7456 0.579333 10.4869C0.773456 10.2281 1.06241 10.0571 1.38263 10.0114C1.70284 9.96576 2.02809 10.0492 2.28682 10.2433C2.54555 10.4374 2.71657 10.7264 2.76225 11.0466C3.00016 12.6941 3.79294 14.2112 5.00964 15.3473C6.22634 16.4833 7.79417 17.1703 9.45413 17.2949C11.1141 17.4194 12.7669 16.974 14.1395 16.0322C15.512 15.0904 16.5223 13.7085 17.0033 12.1149C17.4844 10.5213 17.4075 8.81131 16.7853 7.26734C16.163 5.72337 15.0328 4.43784 13.5812 3.62309C12.1296 2.80834 10.4435 2.51313 8.80139 2.78622C7.15932 3.0593 5.65952 3.88435 4.54975 5.12507ZM9.59375 5.12507C9.91698 5.12507 10.227 5.25347 10.4555 5.48203C10.6841 5.71059 10.8125 6.02059 10.8125 6.34382V9.18757H12.0312C12.3545 9.18757 12.6645 9.31597 12.893 9.54453C13.1216 9.77309 13.25 10.0831 13.25 10.4063C13.25 10.7296 13.1216 11.0395 12.893 11.2681C12.6645 11.4967 12.3545 11.6251 12.0312 11.6251H9.59375C9.27052 11.6251 8.96052 11.4967 8.73196 11.2681C8.5034 11.0395 8.375 10.7296 8.375 10.4063V6.34382C8.375 6.02059 8.5034 5.71059 8.73196 5.48203C8.96052 5.25347 9.27052 5.12507 9.59375 5.12507Z" fill="#EDEDED"/>
</svg>
