<svg width="22" height="22" viewBox="0 0 22 22" fill="none" xmlns="http://www.w3.org/2000/svg">
<path d="M19.1254 11.0001C19.1254 10.7509 19.1145 10.5126 19.0929 10.2634L21.1079 8.73592C21.5412 8.41091 21.6604 7.80425 21.3895 7.32758L19.3637 3.82841C19.2338 3.59895 19.0237 3.42557 18.7738 3.34159C18.5238 3.2576 18.2516 3.26894 18.0095 3.37341L15.6804 4.35925C15.2795 4.07758 14.857 3.82841 14.4129 3.62258L14.0987 1.12008C14.0337 0.578415 13.5679 0.166748 13.0262 0.166748H8.98537C8.43287 0.166748 7.96704 0.578415 7.90204 1.12008L7.58787 3.62258C7.1437 3.82841 6.7212 4.07758 6.32037 4.35925L3.9912 3.37341C3.49287 3.15675 2.90787 3.35175 2.63704 3.82841L0.611203 7.33841C0.34037 7.81508 0.459536 8.41092 0.89287 8.74675L2.90787 10.2742C2.86296 10.7607 2.86296 11.2503 2.90787 11.7367L0.89287 13.2642C0.459536 13.5892 0.34037 14.1959 0.611203 14.6726L2.63704 18.1717C2.90787 18.6484 3.49287 18.8434 3.9912 18.6267L6.32037 17.6409C6.7212 17.9226 7.1437 18.1717 7.58787 18.3776L7.90204 20.8801C7.96704 21.4217 8.43287 21.8334 8.97454 21.8334H13.0154C13.557 21.8334 14.0229 21.4217 14.0879 20.8801L14.402 18.3776C14.8462 18.1717 15.2687 17.9226 15.6695 17.6409L17.9987 18.6267C18.497 18.8434 19.082 18.6484 19.3529 18.1717L21.3787 14.6726C21.6495 14.1959 21.5304 13.6001 21.097 13.2642L19.082 11.7367C19.1145 11.4876 19.1254 11.2492 19.1254 11.0001ZM11.0437 14.7917C8.95287 14.7917 7.25204 13.0909 7.25204 11.0001C7.25204 8.90925 8.95287 7.20842 11.0437 7.20842C13.1345 7.20842 14.8354 8.90925 14.8354 11.0001C14.8354 13.0909 13.1345 14.7917 11.0437 14.7917Z" fill="#EDEDED"/>
</svg>
