<svg width="40" height="40" viewBox="0 0 40 40" fill="none" xmlns="http://www.w3.org/2000/svg">
<path d="M13.3333 17.9333H12.3667C11.0475 17.8857 9.73263 18.1096 8.50363 18.5913C7.27462 19.0729 6.15772 19.802 5.22223 20.7333L4.95557 21.0445V30.2445H9.4889V25.0222L10.1 24.3333L10.3778 24.0111C11.8244 22.525 13.6253 21.4314 15.6111 20.8333C14.6169 20.0768 13.8328 19.0785 13.3333 17.9333Z" fill="#E0A501"/>
<path d="M34.8222 20.7C33.8867 19.7687 32.7698 19.0396 31.5408 18.5579C30.3118 18.0763 28.9969 17.8523 27.6777 17.9C27.2731 17.9012 26.8689 17.9234 26.4666 17.9667C25.9578 19.041 25.1951 19.9753 24.2444 20.6889C26.3644 21.2754 28.2848 22.4277 29.7999 24.0222L30.0777 24.3333L30.6777 25.0222V30.2556H35.0555V21.0111L34.8222 20.7Z" fill="#E0A501"/>
<path d="M12.3334 15.7667H12.6778C12.5178 14.3925 12.7589 13.0014 13.3721 11.7612C13.9852 10.5211 14.9443 9.48489 16.1334 8.77778C15.7023 8.11928 15.1077 7.58401 14.4076 7.22439C13.7075 6.86477 12.9261 6.69312 12.1397 6.72626C11.3534 6.7594 10.5891 6.99618 9.92182 7.41343C9.2545 7.83067 8.70697 8.41408 8.33286 9.10651C7.95875 9.79894 7.77088 10.5767 7.78765 11.3635C7.80442 12.1504 8.02526 12.9194 8.42853 13.5952C8.8318 14.2711 9.40369 14.8306 10.0882 15.2191C10.7727 15.6075 11.5463 15.8115 12.3334 15.8111V15.7667Z" fill="#E0A501"/>
<path d="M27.1444 14.9333C27.1579 15.1887 27.1579 15.4446 27.1444 15.7C27.3576 15.7338 27.5729 15.7524 27.7888 15.7556H27.9999C28.7835 15.7138 29.5429 15.4698 30.2042 15.0474C30.8655 14.625 31.4061 14.0386 31.7735 13.3452C32.1409 12.6519 32.3225 11.8752 32.3006 11.0908C32.2787 10.3064 32.0541 9.54109 31.6486 8.86929C31.2432 8.19749 30.6707 7.64212 29.9868 7.25726C29.303 6.8724 28.5312 6.67116 27.7465 6.67313C26.9618 6.67511 26.191 6.88023 25.5092 7.26852C24.8273 7.65682 24.2576 8.21506 23.8555 8.88889C24.8611 9.54549 25.688 10.4415 26.2621 11.4964C26.8361 12.5514 27.1393 13.7323 27.1444 14.9333Z" fill="#E0A501"/>
<path d="M19.8556 19.9111C22.5986 19.9111 24.8223 17.6875 24.8223 14.9444C24.8223 12.2014 22.5986 9.97778 19.8556 9.97778C17.1126 9.97778 14.8889 12.2014 14.8889 14.9444C14.8889 17.6875 17.1126 19.9111 19.8556 19.9111Z" fill="#E0A501"/>
<path d="M20.1221 22.5556C18.6711 22.497 17.2231 22.7325 15.8655 23.2481C14.5078 23.7637 13.2685 24.5486 12.2221 25.5556L11.9443 25.8667V32.9C11.9487 33.1291 11.9981 33.3551 12.0898 33.5651C12.1815 33.7751 12.3137 33.9649 12.4788 34.1238C12.6438 34.2827 12.8386 34.4076 13.052 34.4912C13.2653 34.5748 13.493 34.6155 13.7221 34.6111H26.4888C26.7179 34.6155 26.9456 34.5748 27.1589 34.4912C27.3723 34.4076 27.5671 34.2827 27.7321 34.1238C27.8972 33.9649 28.0294 33.7751 28.1211 33.5651C28.2128 33.3551 28.2622 33.1291 28.2666 32.9V25.8889L27.9999 25.5556C26.9602 24.5455 25.7253 23.7584 24.3706 23.2425C23.016 22.7266 21.5703 22.4929 20.1221 22.5556Z" fill="#E0A501"/>
</svg>
