<svg width="30" height="27" viewBox="0 0 30 27" fill="none" xmlns="http://www.w3.org/2000/svg">
<path d="M2.3715 15.3963L23.905 15.3964L17.3142 23.3126C17.0061 23.6833 16.8578 24.1614 16.9021 24.6415C16.9463 25.1216 17.1795 25.5644 17.5503 25.8726C17.9211 26.1808 18.3991 26.3291 18.8792 26.2848C19.3593 26.2405 19.8021 26.0074 20.1103 25.6366L29.1885 14.7427C29.2496 14.6561 29.3042 14.565 29.352 14.4704C29.352 14.3796 29.352 14.3251 29.479 14.2343C29.5613 14.0262 29.6044 13.8046 29.6061 13.5807C29.6044 13.3569 29.5613 13.1353 29.479 12.9271C29.479 12.8363 29.479 12.7818 29.352 12.691C29.3042 12.5964 29.2496 12.5053 29.1885 12.4187L20.1103 1.52484C19.9396 1.31989 19.7258 1.15506 19.4842 1.04209C19.2426 0.929122 18.979 0.870778 18.7123 0.871211C18.2881 0.870383 17.8769 1.01813 17.5503 1.28881C17.3664 1.44123 17.2145 1.62843 17.1031 1.83967C16.9917 2.05092 16.923 2.28206 16.9011 2.51986C16.8792 2.75767 16.9044 2.99747 16.9753 3.22552C17.0462 3.45357 17.1614 3.6654 17.3142 3.84886L23.905 11.7651L2.3715 11.7651C1.88996 11.7651 1.42815 11.9564 1.08765 12.2969C0.747148 12.6374 0.555858 13.0992 0.555858 13.5807C0.555858 14.0622 0.747148 14.5241 1.08765 14.8646C1.42815 15.2051 1.88996 15.3963 2.3715 15.3963Z" fill="#FFCB00"/>
</svg>
