<svg width="111" height="101" viewBox="0 0 111 101" fill="none" xmlns="http://www.w3.org/2000/svg">
<path d="M80.9437 0C75.4229 0 70.1281 2.17658 66.2243 6.05091C62.3204 9.92524 60.1273 15.18 60.1273 20.6591V32.1364L52.6333 40.7489C51.6341 41.8966 51.1299 42.4751 50.9911 42.9342C50.8228 43.4731 50.8605 44.0547 51.0968 44.5679C51.3332 45.0811 51.7517 45.4899 52.2725 45.7163C52.7166 45.9091 53.4845 45.9091 55.0157 45.9091H106.872C108.403 45.9091 109.171 45.9091 109.615 45.7163C110.136 45.4899 110.554 45.0811 110.791 44.5679C111.027 44.0547 111.065 43.4731 110.896 42.9342C110.758 42.4751 110.253 41.9012 109.25 40.7489L101.76 32.1364V20.6591C101.76 15.18 99.5671 9.92524 95.6632 6.05091C91.7594 2.17658 86.4646 0 80.9437 0ZM80.9437 59.6818C83.3975 59.6818 85.7507 58.7144 87.4857 56.9925C89.2208 55.2706 90.1955 52.9352 90.1955 50.5H71.692C71.692 52.9352 72.6667 55.2706 74.4017 56.9925C76.1368 58.7144 78.49 59.6818 80.9437 59.6818ZM46.5919 41.5707C46.8694 40.7434 47.294 39.9722 47.8455 39.2936C48.1971 38.8483 48.6458 38.3295 49.0899 37.8245L55.5199 30.4285V20.6591C55.5199 19.8832 55.5569 19.1211 55.6263 18.3636H15.0341L14.183 18.3866C10.349 18.6024 6.74357 20.266 4.10627 23.0361C1.46897 25.8063 -0.000251402 29.473 3.22664e-08 33.2841V34.1288L50.8847 60.3888L67.1679 51.9875C67.1133 51.4935 67.0855 50.9969 67.0846 50.5H54.937C54.257 50.5 53.5678 50.5 53.0034 50.4679C52.1249 50.4404 51.2585 50.2569 50.4453 49.9261C48.8792 49.2485 47.62 48.0213 46.909 46.4795C46.198 44.9378 46.0851 43.1899 46.5919 41.5707ZM80.9622 64.2727C78.7461 64.2737 76.5621 63.7473 74.5933 62.7376C72.6246 61.7279 70.9285 60.2644 69.6473 58.4698L52.4853 67.3303C51.9909 67.5854 51.4419 67.7186 50.8847 67.7186C50.3275 67.7186 49.7785 67.5854 49.2842 67.3303L3.22664e-08 41.8829V86.075L0.02313 86.9197C0.239401 90.7255 1.91518 94.3048 4.70657 96.9231C7.49796 99.5414 11.1933 101 15.0341 101H86.7354L87.5911 100.977C91.4243 100.76 95.0286 99.0961 97.6649 96.326C100.301 93.556 101.77 89.8899 101.769 86.0795V50.5H94.8399C94.8399 54.1528 93.3778 57.6559 90.7752 60.2388C88.1727 62.8217 84.6428 64.2727 80.9622 64.2727Z" fill="#E0A501"/>
</svg>
