<svg width="30" height="30" viewBox="0 0 30 30" fill="none" xmlns="http://www.w3.org/2000/svg">
<path d="M15 0C12.0333 0 9.13319 0.879735 6.66645 2.52796C4.19972 4.17618 2.27713 6.51886 1.14181 9.25975C0.00649926 12.0006 -0.290551 15.0166 0.288228 17.9264C0.867006 20.8361 2.29562 23.5088 4.3934 25.6066C6.49119 27.7044 9.16394 29.133 12.0737 29.7118C14.9834 30.2906 17.9994 29.9935 20.7403 28.8582C23.4812 27.7229 25.8238 25.8003 27.472 23.3336C29.1203 20.8668 30 17.9667 30 15C30 13.0302 29.612 11.0796 28.8582 9.25975C28.1044 7.43986 26.9995 5.78628 25.6066 4.3934C24.2137 3.00052 22.5601 1.89563 20.7403 1.14181C18.9204 0.387987 16.9698 0 15 0ZM15 24C14.7033 24 14.4133 23.912 14.1667 23.7472C13.92 23.5824 13.7277 23.3481 13.6142 23.074C13.5007 22.7999 13.471 22.4983 13.5288 22.2074C13.5867 21.9164 13.7296 21.6491 13.9393 21.4393C14.1491 21.2296 14.4164 21.0867 14.7074 21.0288C14.9983 20.9709 15.2999 21.0006 15.574 21.1142C15.8481 21.2277 16.0824 21.42 16.2472 21.6666C16.412 21.9133 16.5 22.2033 16.5 22.5C16.5 22.8978 16.342 23.2794 16.0607 23.5607C15.7794 23.842 15.3978 24 15 24ZM16.5 16.26V18C16.5 18.3978 16.342 18.7794 16.0607 19.0607C15.7794 19.342 15.3978 19.5 15 19.5C14.6022 19.5 14.2207 19.342 13.9393 19.0607C13.658 18.7794 13.5 18.3978 13.5 18V15C13.5 14.6022 13.658 14.2206 13.9393 13.9393C14.2207 13.658 14.6022 13.5 15 13.5C15.445 13.5 15.88 13.368 16.25 13.1208C16.6201 12.8736 16.9084 12.5222 17.0787 12.111C17.249 11.6999 17.2936 11.2475 17.2068 10.811C17.12 10.3746 16.9057 9.97368 16.591 9.65901C16.2763 9.34434 15.8754 9.13005 15.439 9.04323C15.0025 8.95642 14.5501 9.00097 14.139 9.17127C13.7278 9.34157 13.3764 9.62996 13.1292 9.99997C12.882 10.37 12.75 10.805 12.75 11.25C12.75 11.6478 12.592 12.0294 12.3107 12.3107C12.0294 12.592 11.6478 12.75 11.25 12.75C10.8522 12.75 10.4707 12.592 10.1893 12.3107C9.90804 12.0294 9.75001 11.6478 9.75001 11.25C9.74608 10.2755 10.0135 9.31905 10.5223 8.48786C11.0311 7.65668 11.7612 6.98352 12.6309 6.54376C13.5006 6.10399 14.4756 5.91499 15.4466 5.99789C16.4176 6.0808 17.3464 6.43234 18.1289 7.01317C18.9115 7.594 19.5169 8.38119 19.8775 9.2866C20.238 10.192 20.3394 11.1799 20.1704 12.1397C20.0013 13.0995 19.5684 13.9932 18.9202 14.7209C18.2719 15.4486 17.4339 15.9815 16.5 16.26Z" fill="#C4C4C4"/>
</svg>
