<svg width="20" height="20" viewBox="0 0 20 20" fill="none" xmlns="http://www.w3.org/2000/svg">
<path d="M9.92186 12.1875C10.502 12.1875 11.0584 11.957 11.4687 11.5468C11.8789 11.1365 12.1094 10.5801 12.1094 9.99998C12.1094 9.93591 12.1064 9.87244 12.101 9.80974L9.73163 12.1791C9.79433 12.1845 9.85761 12.1875 9.92186 12.1875ZM17.1625 3.23357L16.3281 2.39998C16.2988 2.3707 16.2591 2.35425 16.2177 2.35425C16.1762 2.35425 16.1365 2.3707 16.1072 2.39998L13.9721 4.53572C12.7942 3.93377 11.4702 3.63279 9.99999 3.63279C6.24608 3.63279 3.4453 5.58787 1.59765 9.49802C1.52338 9.65528 1.48486 9.82704 1.48486 10.001C1.48486 10.1749 1.52338 10.3466 1.59765 10.5039C2.33593 12.059 3.22493 13.3054 4.26464 14.2431L2.19843 16.3086C2.16915 16.3379 2.1527 16.3776 2.1527 16.419C2.1527 16.4604 2.16915 16.5002 2.19843 16.5295L3.03222 17.3633C3.06152 17.3925 3.10124 17.409 3.14267 17.409C3.18409 17.409 3.22382 17.3925 3.25312 17.3633L17.1625 3.45466C17.177 3.44015 17.1885 3.42292 17.1964 3.40395C17.2043 3.38498 17.2083 3.36465 17.2083 3.34412C17.2083 3.32358 17.2043 3.30325 17.1964 3.28428C17.1885 3.26531 17.177 3.24808 17.1625 3.23357ZM6.48436 9.99998C6.48431 9.40624 6.63805 8.82261 6.93059 8.30594C7.22314 7.78928 7.64452 7.3572 8.15369 7.05179C8.66286 6.74638 9.24245 6.57807 9.836 6.56324C10.4296 6.54841 11.0168 6.68757 11.5406 6.96716L10.591 7.91677C10.208 7.79415 9.79869 7.77938 9.40788 7.87409C9.01707 7.9688 8.6599 8.16933 8.37556 8.45367C8.09121 8.73801 7.89069 9.09518 7.79598 9.48599C7.70127 9.8768 7.71604 10.2861 7.83866 10.6691L6.88905 11.6187C6.62257 11.1208 6.48353 10.5647 6.48436 9.99998Z" fill="#C4C4C4"/>
<path d="M18.4021 9.49609C17.7146 8.04818 16.8963 6.86751 15.9472 5.9541L13.1319 8.76953C13.3692 9.38987 13.4218 10.0657 13.2834 10.7152C13.1449 11.3648 12.8213 11.9604 12.3517 12.4301C11.882 12.8997 11.2864 13.2233 10.6368 13.3618C9.98724 13.5003 9.31145 13.4477 8.69111 13.2104L6.30322 15.5982C7.41104 16.1109 8.6432 16.3672 9.99971 16.3672C13.7536 16.3672 16.5544 14.4121 18.4021 10.502C18.4763 10.3447 18.5149 10.1729 18.5149 9.99902C18.5149 9.82511 18.4763 9.65335 18.4021 9.49609Z" fill="#C4C4C4"/>
</svg>
