<svg width="24" height="24" viewBox="0 0 24 24" fill="none" xmlns="http://www.w3.org/2000/svg">
<path fill-rule="evenodd" clip-rule="evenodd" d="M12 24C18.6274 24 24 18.6274 24 12C24 5.37258 18.6274 0 12 0C5.37258 0 0 5.37258 0 12C0 18.6274 5.37258 24 12 24ZM9.61455 15.8892C9.5015 16.0035 9.43799 16.1584 9.43799 16.32C9.43799 16.4816 9.5015 16.6365 9.61455 16.7508C9.72761 16.865 9.88094 16.9292 10.0408 16.9292H18.7818C18.9417 16.9292 19.095 16.865 19.2081 16.7508C19.3211 16.6365 19.3846 16.4816 19.3846 16.32C19.3846 16.1584 19.3211 16.0035 19.2081 15.8892C19.095 15.775 18.9417 15.7108 18.7818 15.7108H10.0408C9.88094 15.7108 9.72761 15.775 9.61455 15.8892ZM9.61455 12.0307C9.5015 12.145 9.43799 12.3 9.43799 12.4615C9.43799 12.6231 9.5015 12.7781 9.61455 12.8923C9.72761 13.0066 9.88094 13.0708 10.0408 13.0708H18.7818C18.9417 13.0708 19.095 13.0066 19.2081 12.8923C19.3211 12.7781 19.3846 12.6231 19.3846 12.4615C19.3846 12.3 19.3211 12.145 19.2081 12.0307C19.095 11.9165 18.9417 11.8523 18.7818 11.8523H10.0408C9.88094 11.8523 9.72761 11.9165 9.61455 12.0307ZM9.61455 8.17229C9.5015 8.28654 9.43799 8.4415 9.43799 8.60308C9.43799 8.76466 9.5015 8.91961 9.61455 9.03387C9.72761 9.14812 9.88094 9.21231 10.0408 9.21231H18.7818C18.9417 9.21231 19.095 9.14812 19.2081 9.03387C19.3211 8.91961 19.3846 8.76466 19.3846 8.60308C19.3846 8.4415 19.3211 8.28654 19.2081 8.17229C19.095 8.05803 18.9417 7.99385 18.7818 7.99385H10.0408C9.88094 7.99385 9.72761 8.05803 9.61455 8.17229ZM6.67356 9.46466C6.44746 9.69316 6.14079 9.82154 5.82104 9.82154C5.50128 9.82154 5.19462 9.69316 4.96851 9.46466C4.74241 9.23615 4.61538 8.92623 4.61538 8.60308C4.61538 8.27992 4.74241 7.97 4.96851 7.74149C5.19462 7.51299 5.50128 7.38462 5.82104 7.38462C6.14079 7.38462 6.44746 7.51299 6.67356 7.74149C6.89966 7.97 7.02669 8.27992 7.02669 8.60308C7.02669 8.92623 6.89966 9.23615 6.67356 9.46466ZM6.67356 13.3231C6.44746 13.5516 6.14079 13.68 5.82104 13.68C5.50128 13.68 5.19462 13.5516 4.96851 13.3231C4.74241 13.0946 4.61538 12.7847 4.61538 12.4615C4.61538 12.1384 4.74241 11.8285 4.96851 11.6C5.19462 11.3715 5.50128 11.2431 5.82104 11.2431C6.14079 11.2431 6.44746 11.3715 6.67356 11.6C6.89966 11.8285 7.02669 12.1384 7.02669 12.4615C7.02669 12.7847 6.89966 13.0946 6.67356 13.3231ZM6.67356 17.1816C6.44746 17.4101 6.14079 17.5385 5.82104 17.5385C5.50128 17.5385 5.19462 17.4101 4.96851 17.1816C4.74241 16.9531 4.61538 16.6432 4.61538 16.32C4.61538 15.9968 4.74241 15.6869 4.96851 15.4584C5.19462 15.2299 5.50128 15.1015 5.82104 15.1015C6.14079 15.1015 6.44746 15.2299 6.67356 15.4584C6.89966 15.6869 7.02669 15.9968 7.02669 16.32C7.02669 16.6432 6.89966 16.9531 6.67356 17.1816Z" fill="#E0A501"/>
</svg>
